<svg width="87" height="87" viewBox="0 0 87 87" fill="none" xmlns="http://www.w3.org/2000/svg">
<path fill-rule="evenodd" clip-rule="evenodd" d="M82.8572 43.2143C82.8572 64.8717 65.3003 82.4286 43.6429 82.4286C21.9854 82.4286 4.42859 64.8717 4.42859 43.2143C4.42859 21.5568 21.9854 4 43.6429 4C65.3003 4 82.8572 21.5568 82.8572 43.2143ZM86.8572 43.2143C86.8572 67.0809 67.5095 86.4286 43.6429 86.4286C19.7763 86.4286 0.428589 67.0809 0.428589 43.2143C0.428589 19.3477 19.7763 0 43.6429 0C67.5095 0 86.8572 19.3477 86.8572 43.2143ZM23.6172 29.4062V55H30.9824C33.291 55 35.336 54.502 37.1172 53.5059C38.9102 52.5098 40.2871 51.0918 41.2481 49.252C42.2207 47.4121 42.7071 45.2793 42.7071 42.8535V41.5703C42.7071 39.1797 42.2266 37.0586 41.2656 35.207C40.3047 33.3555 38.9453 31.9258 37.1875 30.918C35.4414 29.9102 33.4375 29.4062 31.1758 29.4062H23.6172ZM28.0645 51.4492V32.9922H31.1758C33.4727 32.9922 35.2246 33.7246 36.4317 35.1895C37.6387 36.6543 38.2422 38.7754 38.2422 41.5527V42.9766C38.2188 45.707 37.5801 47.8047 36.3262 49.2695C35.084 50.7227 33.2969 51.4492 30.9649 51.4492H28.0645ZM51.584 45.1387H56.541L61.6738 55H66.4375V54.7715L60.6895 44.1016C62.166 43.4805 63.3145 42.5957 64.1348 41.4473C64.9668 40.2871 65.3828 38.8516 65.3828 37.1406C65.3828 34.6328 64.5801 32.7168 62.9746 31.3926C61.3692 30.0684 59.0899 29.4062 56.1367 29.4062H47.1367V55H51.584V45.1387ZM56.1543 41.5703H51.584V32.9922H56.2774C57.8242 33.0156 58.9844 33.4023 59.7578 34.1523C60.543 34.9023 60.9356 35.9629 60.9356 37.334C60.9356 38.6465 60.5137 39.6836 59.6699 40.4453C58.8262 41.1953 57.6543 41.5703 56.1543 41.5703Z" fill="black"/>
</svg>
