<svg xmlns="http://www.w3.org/2000/svg" viewBox="0 0 419.99 210"><defs><style>.cls-1{fill:#00aa4d;}</style></defs><title>main_logo</title><g id="Layer_2" data-name="Layer 2"><g id="Layer_1-2" data-name="Layer 1"><path d="M251.33,170c.48,1.43,1,2.87,1.43,4.32.47-1.49,1-3,1.45-4.41s1-2.84,1.61-4.17L277.27,116a7.51,7.51,0,0,1,.83-1.5,2.61,2.61,0,0,1,.95-.8,3.48,3.48,0,0,1,1.18-.31,14.16,14.16,0,0,1,1.56-.07H292V203.2H280.08V145.13c0-1.08,0-2.26.08-3.55s.12-2.59.22-3.91l-21.91,51a7,7,0,0,1-2,2.71,4.37,4.37,0,0,1-2.81,1h-1.85a4.37,4.37,0,0,1-2.81-1,7,7,0,0,1-2-2.71l-22.21-51.17c.14,1.37.23,2.7.28,4s.07,2.52.07,3.64V203.2H213.35V113.29h10.18a13.85,13.85,0,0,1,1.55.07,3.36,3.36,0,0,1,1.18.31,2.77,2.77,0,0,1,1,.8,6.61,6.61,0,0,1,.85,1.5l21.66,49.92C250.32,167.22,250.84,168.6,251.33,170Z"/><path class="cls-1" d="M373.23,182a2.71,2.71,0,0,1,2.13,1.06l6,7.15a33.39,33.39,0,0,1-12.17,10.38,38.46,38.46,0,0,1-17.33,3.61,37.5,37.5,0,0,1-16.26-3.42,36,36,0,0,1-12.33-9.52,42.74,42.74,0,0,1-7.84-14.55,59.76,59.76,0,0,1-2.72-18.46,54.46,54.46,0,0,1,3-18.56,43.13,43.13,0,0,1,8.54-14.52,38.56,38.56,0,0,1,13.17-9.48,41.47,41.47,0,0,1,16.94-3.39A35.58,35.58,0,0,1,381.77,124l-5.06,7.77a4.93,4.93,0,0,1-1.15,1.31,3.07,3.07,0,0,1-1.94.55,4.2,4.2,0,0,1-2.64-1.11,31.59,31.59,0,0,0-3.43-2.43,26,26,0,0,0-5.25-2.42,24.48,24.48,0,0,0-8.06-1.12,24.92,24.92,0,0,0-10.53,2.2,23.5,23.5,0,0,0-8.26,6.32,29.79,29.79,0,0,0-5.4,10,42.19,42.19,0,0,0-1.93,13.22,43.32,43.32,0,0,0,1.93,13.49,30.71,30.71,0,0,0,5.26,9.95,22.64,22.64,0,0,0,7.81,6.18,22.1,22.1,0,0,0,9.66,2.15,39.39,39.39,0,0,0,5.59-.37,22.06,22.06,0,0,0,4.61-1.19,19.1,19.1,0,0,0,4-2.08,24.93,24.93,0,0,0,3.74-3.14,5.44,5.44,0,0,1,1.18-.9A2.71,2.71,0,0,1,373.23,182Z"/><path d="M420,203.2h-14.6V113.29H420Z"/><path class="cls-1" d="M261.41,63.65C257,79,247.65,88.58,232.46,91.2a57.8,57.8,0,0,0-10.39,2.28c-8.7,3.24-17.52,6.52-23.13,15.09a55.16,55.16,0,0,0-8,21.88,159.52,159.52,0,0,0-1.63,22.07c-.27,15.48-4.9,29.17-15.09,40.57-12.13,13.58-27,18.49-44.22,16.47a46.46,46.46,0,0,1-28.25-13.77,58.05,58.05,0,0,1-16-29.68,62.67,62.67,0,0,1,4.73-40.4,54.8,54.8,0,0,1,8.68,18c2,7.44,2.26,15.27,4.61,22.6,5,15.61,17.67,25.57,33.16,25.69,10.77.08,20.13-4.12,27-13a42.07,42.07,0,0,0,1.47-49.42c-6.16-8.92-14.34-13.46-24.31-15.07-9.63-1.55-18.64-4.81-26.63-10.86-2.3-1.74-2.25-1.77.36-3.14,7.63-4,15.83-5.19,24.17-5.31a99.58,99.58,0,0,0,23.72-3.65c14.18-3.67,22.64-13.7,26.64-28.33A161.71,161.71,0,0,0,193,44.6a32.72,32.72,0,0,1,2.11-7.34c6-14.66,18.49-23.6,33-23.24,9.76.24,18.39,3.86,24.89,11.76,4.46,5.42,8,11.57,9,19a51.07,51.07,0,0,1,.69,11.67A24.33,24.33,0,0,1,261.41,63.65Z"/><path d="M44.36,0C57.84,0,66.74,2.69,74.41,8.76c11.42,9,18.58,21,20.19,36.32.67,6.43.33,12.89.7,19.33.64,11.22,2.36,22.18,7.43,32.19,2.66,5.25,6.69,9.22,11.14,12.89,7.67,6.34,16.68,8.61,25.87,10.22,13,2.3,22.07,9.81,25.94,23.11,3.65,12.53,1.31,24.11-7.26,34.17a28.81,28.81,0,0,1-42,1.63,34.43,34.43,0,0,1-10-21.37c-1.25-11.49-3.68-22.69-9.9-32.5-3.71-5.86-9-9.76-14.75-13.08-7.46-4.3-15.56-5.58-23.84-6.56s-16.56-.22-24.59-3c-13-4.55-22.23-13.53-28.25-26.55A55.76,55.76,0,0,1,0,49.76,57,57,0,0,1,4.75,29.4c3.32-7.8,8.49-13.78,14.67-19.2A40.58,40.58,0,0,1,44.36,0Z"/></g></g></svg>